<svg xmlns="http://www.w3.org/2000/svg" viewBox="0 0 63.21 122.84"><defs><style>.cls-1{fill:#476c86;}.cls-2{fill:#fff;}</style></defs><g id="Layer_4" data-name="Layer 4"><g id="media"><rect class="cls-1" width="63.21" height="122.84"/><path class="cls-2" d="M47,91.14A5.31,5.31,0,0,0,41.85,86H21.36a5.31,5.31,0,0,0-5.13,5.13v20.49a5.31,5.31,0,0,0,5.13,5.12H31.6V105.14H27.85V100H31.6V98c0-3.44,2.59-6.54,5.77-6.54h4.14V96.6H37.37c-.46,0-1,.55-1,1.38v2h5.12v5.12H36.39v11.61h5.46A5.31,5.31,0,0,0,47,111.63Zm0,0"/></g></g></svg>