<svg xmlns="http://www.w3.org/2000/svg" viewBox="0 0 63.21 122.84"><defs><style>.cls-1{fill:#476c86;}.cls-2{fill:#fff;}</style></defs><g id="Layer_4" data-name="Layer 4"><g id="media"><rect class="cls-1" width="63.21" height="122.84"/><path class="cls-2" d="M38.43,86H26.25A10.16,10.16,0,0,0,16.1,96.16v12.18a10.15,10.15,0,0,0,10.15,10.14H38.43a10.14,10.14,0,0,0,10.14-10.14V96.16A10.15,10.15,0,0,0,38.43,86Zm7.1,22.33a7.11,7.11,0,0,1-7.1,7.1H26.25a7.11,7.11,0,0,1-7.1-7.1V96.16a7.1,7.1,0,0,1,7.1-7.1H38.43a7.11,7.11,0,0,1,7.1,7.1Z"/><path class="cls-2" d="M32.34,94.13a8.12,8.12,0,1,0,8.12,8.12A8.12,8.12,0,0,0,32.34,94.13Zm0,13.19a5.08,5.08,0,1,1,5.07-5.07A5.08,5.08,0,0,1,32.34,107.32Z"/><circle class="cls-2" cx="41.07" cy="93.52" r="1.08"/></g></g></svg>