<svg xmlns="http://www.w3.org/2000/svg" viewBox="0 0 63.21 122.84"><defs><style>.cls-1{fill:#476c86;}.cls-2{fill:#fff;}</style></defs><g id="Layer_4" data-name="Layer 4"><g id="media"><rect class="cls-1" width="63.21" height="122.84"/><path class="cls-2" d="M50.39,90.12l-2.58.12,1.4-4s-4.37,1.61-5.48,1.9a8.75,8.75,0,0,0-10.32-.83A7.13,7.13,0,0,0,30,94.66a19.1,19.1,0,0,1-12.36-7l-1-1.24-.78,1.42a8.64,8.64,0,0,0-.91,5.79,8.38,8.38,0,0,0,.8,2.25l-.88-.34-.11,1.48a8,8,0,0,0,1.34,4.72,8.64,8.64,0,0,0,1.05,1.29l-.46-.07.56,1.7a8.34,8.34,0,0,0,4.25,4.93c-2,.84-3.58,1.37-6.21,2.24l-2.41.79,2.22,1.22a23.68,23.68,0,0,0,6.81,2.48c6.59,1,14,.19,19-4.31,4.2-3.78,5.58-9.17,5.3-14.77A3.49,3.49,0,0,1,46.8,95c.93-1.25,3.58-4.87,3.59-4.88ZM45,93.68"/></g></g></svg>