<svg xmlns="http://www.w3.org/2000/svg" viewBox="0 0 63.21 122.84"><defs><style>.cls-1{fill:#476c86;}.cls-2{fill:#fff;}</style></defs><g id="Layer_4" data-name="Layer 4"><g id="media"><rect class="cls-1" width="63.21" height="122.84"/><path class="cls-2" d="M52.57,91.25a5.58,5.58,0,0,0-4.82-4.37,151.54,151.54,0,0,0-16.64-.61,151.45,151.45,0,0,0-16.64.61,5.65,5.65,0,0,0-4.85,4.37,49.6,49.6,0,0,0-.74,10.47,50.17,50.17,0,0,0,.74,10.55,5.64,5.64,0,0,0,4.85,4.38,151.09,151.09,0,0,0,16.64.61,151.63,151.63,0,0,0,16.64-.61,5.71,5.71,0,0,0,4.82-4.38,53,53,0,0,0,.74-10.55A49.6,49.6,0,0,0,52.57,91.25ZM37.18,105.56,34.67,107l-8.07,4.65V94.2l8.48,4.9,2.08,1.2,4.57,2.64Z"/></g></g></svg>