<svg xmlns="http://www.w3.org/2000/svg" xmlns:xlink="http://www.w3.org/1999/xlink" viewBox="0 0 175 175"><defs><style>.cls-1{fill:none;}.cls-2{clip-path:url(#clip-path);}.cls-3{fill:#d7d7d7;}.cls-4{fill:#476c86;stroke:#476c86;stroke-miterlimit:10;}</style><clipPath id="clip-path"><rect class="cls-1" x="-1542.21" y="-1058.36" width="1919.75" height="805.54"/></clipPath></defs><g id="Layer_4" data-name="Layer 4"><g class="cls-2"><image width="5184" height="3456" transform="translate(-1559.57 -1795.36) scale(0.56)" xlink:href="D:%5C%D8%AC%D9%85%D8%B9%D9%8A%D8%A7%D8%AA%20%D9%88%D9%85%D9%86%D8%B8%D9%85%D8%A7%D8%AA%5C%D9%87%D9%8A%D8%A6%D8%A9%20%D8%AA%D8%B7%D9%88%D9%8A%D8%B1%20%D8%A7%D9%84%D8%AA%D8%B9%D9%84%D9%8A%D9%85%5Chome%20page%5C%D8%B5%D9%88%D8%B1%20%D9%85%D8%AF%D8%A7%D8%B1%D8%B3%5C%D9%88%D8%A7%D8%AC%D8%AF%D9%88%20%D8%A7%D9%84%D8%B7%D8%B1%D9%8A%D9%82%5CIMG_7926.JPG"/></g></g><g id="Layer_3" data-name="Layer 3"><circle class="cls-3" cx="115.91" cy="100.22" r="50.86"/><path class="cls-4" d="M44.37,59.4A22.23,22.23,0,0,0,74.2,79.86,1.71,1.71,0,0,0,73,76.65a18.53,18.53,0,0,1-6.65,1.13A18.92,18.92,0,0,1,47.79,59.32a18.8,18.8,0,1,1,36.57,5.83A3.57,3.57,0,0,1,81,67.53h0A3.58,3.58,0,0,1,77.42,64V49.86a1.71,1.71,0,0,0-3.42,0v1.23a10.82,10.82,0,1,0,.45,15.33A7,7,0,0,0,81,70.94h0a7,7,0,0,0,6.6-4.66A22.23,22.23,0,1,0,44.37,59.4Zm22.22,7A7.41,7.41,0,1,1,74,59,7.42,7.42,0,0,1,66.59,66.39Z"/><path class="cls-4" d="M124.29,64.64,76.35,27.19a15.37,15.37,0,0,0-18.87-.06L8.9,64.63A1.72,1.72,0,0,0,8.23,66V81a1.71,1.71,0,0,0,3.42,0V68.9l43,24-43,33.19V89a1.71,1.71,0,0,0-3.42,0v40.58a1.73,1.73,0,0,0,1.71,1.71H123.23a1.73,1.73,0,0,0,1.71-1.71V66.19a1.79,1.79,0,0,0-.65-1.55ZM15,127.88,59.57,93.44a12,12,0,0,1,14.68,0l.82.64L96.5,110.87a1.71,1.71,0,0,0,2.11-2.69L79.18,93l10.51-5.93a1.71,1.71,0,1,0-1.68-3L76.26,90.72a15.36,15.36,0,0,0-18.67-.07L13,65.76,59.57,29.84a12,12,0,0,1,14.68,0l46.08,36L94.77,80.29a1.71,1.71,0,0,0,1.68,3l25.07-14.13v56.94L104.72,113a1.71,1.71,0,1,0-2.11,2.69l15.66,12.24Z"/></g></svg>