<svg xmlns="http://www.w3.org/2000/svg" xmlns:xlink="http://www.w3.org/1999/xlink" viewBox="0 0 175 175"><defs><style>.cls-1{fill:none;}.cls-2{clip-path:url(#clip-path);}.cls-3{fill:#d7d7d7;}.cls-4{fill:#476c86;}</style><clipPath id="clip-path"><rect class="cls-1" x="-1542.21" y="-1058.36" width="1919.75" height="805.54"/></clipPath></defs><g id="Layer_4" data-name="Layer 4"><g class="cls-2"><image width="5184" height="3456" transform="translate(-1559.57 -1795.36) scale(0.56)" xlink:href="D:%5C%D8%AC%D9%85%D8%B9%D9%8A%D8%A7%D8%AA%20%D9%88%D9%85%D9%86%D8%B8%D9%85%D8%A7%D8%AA%5C%D9%87%D9%8A%D8%A6%D8%A9%20%D8%AA%D8%B7%D9%88%D9%8A%D8%B1%20%D8%A7%D9%84%D8%AA%D8%B9%D9%84%D9%8A%D9%85%5Chome%20page%5C%D8%B5%D9%88%D8%B1%20%D9%85%D8%AF%D8%A7%D8%B1%D8%B3%5C%D9%88%D8%A7%D8%AC%D8%AF%D9%88%20%D8%A7%D9%84%D8%B7%D8%B1%D9%8A%D9%82%5CIMG_7926.JPG"/></g></g><g id="Layer_3" data-name="Layer 3"><circle class="cls-3" cx="113.9" cy="100.66" r="50.86"/><path class="cls-4" d="M72.93,32.84a3.26,3.26,0,0,0,0,6.52c18.41,0,33.39,15.37,33.39,34.26a3.26,3.26,0,1,0,6.51,0C112.83,51.14,94.93,32.84,72.93,32.84Z"/><path class="cls-4" d="M72.91,48.31a3.26,3.26,0,0,0,0,6.52A18.56,18.56,0,0,1,91.2,73.62a3.26,3.26,0,0,0,6.52,0C97.72,59.66,86.59,48.31,72.91,48.31Z"/><path class="cls-4" d="M73,62.55a3.26,3.26,0,0,0,0,6.52,4.37,4.37,0,0,1,4.27,4.45,3.26,3.26,0,0,0,6.52,0A10.89,10.89,0,0,0,73,62.55Z"/><path class="cls-4" d="M58.91,85.79a2.62,2.62,0,0,0-4.47,1.85,2.62,2.62,0,1,0,4.47-1.85Z"/><path class="cls-4" d="M116.23,109.47,96.16,89.41a7.86,7.86,0,0,0-10-.93l-12.8,8.75A2.61,2.61,0,0,1,70,96.92l-4.23-4.23a2.62,2.62,0,1,0-3.71,3.7l4.24,4.24a7.86,7.86,0,0,0,10,.93l12.8-8.76a2.62,2.62,0,0,1,3.33.31l20.06,20.06a2.63,2.63,0,0,1,0,3.71,33,33,0,0,1-46.66,0L25.12,76.14a33,33,0,0,1,0-46.66,2.61,2.61,0,0,1,3.7,0L48.89,49.54a2.62,2.62,0,0,1,.31,3.33L40.45,65.68a7.84,7.84,0,0,0,.92,10L47.74,82a2.62,2.62,0,1,0,3.7-3.7L45.08,72a2.62,2.62,0,0,1-.31-3.33l8.75-12.8a7.86,7.86,0,0,0-.93-10L32.53,25.78a7.85,7.85,0,0,0-11.11,0,38.28,38.28,0,0,0,0,54.06l40.74,40.74a38.27,38.27,0,0,0,54.06,0A7.86,7.86,0,0,0,116.23,109.47Z"/><path class="cls-4" d="M45.52,62.09,29.64,46.22a2.62,2.62,0,1,0-3.7,3.7L41.81,65.8a2.6,2.6,0,0,0,1.85.76,2.62,2.62,0,0,0,1.86-4.47Z"/><path class="cls-4" d="M106.27,122.85l-16.7-16.71a2.62,2.62,0,0,0-3.71,3.71l16.71,16.7a2.62,2.62,0,0,0,3.7-3.7Z"/></g></svg>