<svg xmlns="http://www.w3.org/2000/svg" xmlns:xlink="http://www.w3.org/1999/xlink" viewBox="0 0 175 175"><defs><style>.cls-1{fill:none;}.cls-2{clip-path:url(#clip-path);}.cls-3{fill:#d7d7d7;}.cls-4{fill:#476c86;stroke:#476c86;stroke-miterlimit:10;stroke-width:0.5px;}</style><clipPath id="clip-path"><rect class="cls-1" x="-1542.21" y="-1058.36" width="1919.75" height="805.54"/></clipPath></defs><g id="Layer_4" data-name="Layer 4"><g class="cls-2"><image width="5184" height="3456" transform="translate(-1559.57 -1795.36) scale(0.56)" xlink:href="D:%5C%D8%AC%D9%85%D8%B9%D9%8A%D8%A7%D8%AA%20%D9%88%D9%85%D9%86%D8%B8%D9%85%D8%A7%D8%AA%5C%D9%87%D9%8A%D8%A6%D8%A9%20%D8%AA%D8%B7%D9%88%D9%8A%D8%B1%20%D8%A7%D9%84%D8%AA%D8%B9%D9%84%D9%8A%D9%85%5Chome%20page%5C%D8%B5%D9%88%D8%B1%20%D9%85%D8%AF%D8%A7%D8%B1%D8%B3%5C%D9%88%D8%A7%D8%AC%D8%AF%D9%88%20%D8%A7%D9%84%D8%B7%D8%B1%D9%8A%D9%82%5CIMG_7926.JPG"/></g></g><g id="Layer_3" data-name="Layer 3"><circle class="cls-3" cx="112.19" cy="100.92" r="50.86"/><path class="cls-4" d="M102.11,23.22H97.43a1.59,1.59,0,0,0,0,3.18h4.68a8.76,8.76,0,0,1,8.76,8.73V72a8.76,8.76,0,0,1-8.76,8.73H96.8a1.61,1.61,0,0,0-1,.32L86.1,88.52V82.34a1.59,1.59,0,0,0-1.59-1.59H65.11a8.67,8.67,0,0,1-4.46-1.22V61.64a9.72,9.72,0,0,0-4.3-8.06V35.13a8.76,8.76,0,0,1,8.76-8.73H87.44a1.59,1.59,0,0,0,0-3.18H65.11a11.94,11.94,0,0,0-12,11.91v17a10,10,0,0,0-2.27-.27H21.71A9.76,9.76,0,0,0,12,61.64v3.44a1.6,1.6,0,0,0,3.19,0V61.64a6.57,6.57,0,0,1,6.57-6.55H50.89a6.57,6.57,0,0,1,6.57,6.55V80.16a1.55,1.55,0,0,0,0,.43V90.73a5.68,5.68,0,0,1,0,.59H54.14a7.41,7.41,0,0,0-7.27,6.05,1.86,1.86,0,0,0-.41.23l-7.13,5.51V98.87a1.6,1.6,0,0,0-1.59-1.6h-16a6.56,6.56,0,0,1-6.57-6.54V74.64a1.6,1.6,0,0,0-3.19,0V90.73a9.76,9.76,0,0,0,9.76,9.73H36.15v5.89a1.61,1.61,0,0,0,2.56,1.26l8-6.2v17.93a7.39,7.39,0,0,0,7.39,7.37h9.78v3.72a1.62,1.62,0,0,0,2.57,1.26l6.45-5h1.91a7.39,7.39,0,0,0,7.39-7.37v-2.83a1.6,1.6,0,0,0-3.19,0v2.83a4.2,4.2,0,0,1-4.2,4.18H72.4a1.63,1.63,0,0,0-1,.33l-4.31,3.33v-2.07a1.59,1.59,0,0,0-1.59-1.59H54.14a4.2,4.2,0,0,1-4.2-4.18V98.69a4.2,4.2,0,0,1,4.2-4.18H74.85a4.2,4.2,0,0,1,4.2,4.18v7.83a1.6,1.6,0,0,0,3.19,0V98.69a7.39,7.39,0,0,0-7.39-7.37H60.63c0-.19,0-8.24,0-8.24a12,12,0,0,0,4.46.85h17.8v7.82A1.62,1.62,0,0,0,85.47,93l11.87-9.08h4.77A11.94,11.94,0,0,0,114.05,72V35.13a11.94,11.94,0,0,0-11.94-11.91Z"/><path class="cls-4" d="M87.59,35a3.33,3.33,0,0,0-4.09,3.18,9.35,9.35,0,0,1-2.34,6.19l-4.39,5a1.62,1.62,0,0,0-1.34-.72H66.86a1.59,1.59,0,0,0-1.59,1.59V69.49a1.59,1.59,0,0,0,1.59,1.59h8.57a1.58,1.58,0,0,0,1.45-.93,11.17,11.17,0,0,0,5.8,1.64H97.83a4.17,4.17,0,0,0,4.11-4.32c0-1,0-14.76,0-15.06a4.13,4.13,0,0,0-4.12-4.12l-7.88,0,.33-.77a12.45,12.45,0,0,0-.66-11,3.21,3.21,0,0,0-2-1.55ZM73.84,67.9H68.46V51.8h5.38Zm24-16.42a.93.93,0,0,1,.93.93c0,.3,0,1.13,0,2.24,0,6.16,0,12,0,13a1,1,0,0,1-.26.69,1,1,0,0,1-.67.29H82.68a8,8,0,0,1-5-1.76L77,66.29V53.85l6.52-7.38a12.5,12.5,0,0,0,3.14-8.3.09.09,0,0,1,.16-.05,9.2,9.2,0,0,1,.49,8.13l-1.26,3a1.63,1.63,0,0,0,.14,1.5,1.61,1.61,0,0,0,1.33.71Z"/><path class="cls-4" d="M25.6,78.57a1.6,1.6,0,0,0,0,3.19h4.7l-.88,5.31a1.59,1.59,0,0,0,1.31,1.83,1.18,1.18,0,0,0,.26,0,1.6,1.6,0,0,0,1.58-1.33l1-5.83h3.84l-.87,5.31a1.58,1.58,0,0,0,1.31,1.83,1.14,1.14,0,0,0,.26,0,1.59,1.59,0,0,0,1.57-1.33l1-5.83H47a1.6,1.6,0,0,0,0-3.19H41.13l.64-3.88H47a1.6,1.6,0,0,0,0-3.19H42.3l.88-5.31A1.6,1.6,0,0,0,40,65.67l-1,5.83H35.23l.87-5.31A1.59,1.59,0,1,0,33,65.67L32,71.5H25.6a1.6,1.6,0,0,0,0,3.19h5.87l-.65,3.88Zm9.1-3.88h3.84l-.64,3.88H34.06Z"/><path class="cls-4" d="M64.48,102.74a5.36,5.36,0,0,0-4.72-1.06,5.92,5.92,0,0,0-4.42,6,7.84,7.84,0,0,0,2.35,5.6,23.66,23.66,0,0,0,6.06,4.18,1.63,1.63,0,0,0,1.49,0c5.05-2.68,8.41-5.37,8.41-9.78a5.88,5.88,0,0,0-4.58-6,5.31,5.31,0,0,0-4.59,1Zm6,4.92c0,2.38-1.58,4.14-6,6.56-4.39-2.42-6-4.18-6-6.56a2.74,2.74,0,0,1,2-2.89,2.6,2.6,0,0,1,.56-.06,2.2,2.2,0,0,1,2,1.28,1.59,1.59,0,0,0,2.86-.06,2.07,2.07,0,0,1,2.44-1.11A2.69,2.69,0,0,1,70.46,107.66Z"/></g></svg>