<svg xmlns="http://www.w3.org/2000/svg" viewBox="0 0 150 150"><defs><style>.cls-1{fill:#476c86;}.cls-2{fill:#bdbdbd;}.cls-3{fill:#606060;}</style></defs><g id="Layer_3" data-name="Layer 3"><path class="cls-1" d="M75,13.13c33.28,0,61.87,28.59,61.87,61.87S108.28,136.87,75,136.87,13.13,108.28,13.13,75,41.72,13.13,75,13.13Z"/><path class="cls-2" d="M75,121.78c-24.92,0-46.78-21.86-46.78-46.78S50.08,28.22,75,28.22,121.78,50.08,121.78,75,99.92,121.78,75,121.78Z"/><path class="cls-3" d="M75,31a2.51,2.51,0,0,0,2.51-2.41v-.11a2.51,2.51,0,0,0-5,0v.11A2.51,2.51,0,0,0,75,31Z"/><path class="cls-1" d="M75,47.34c6,0,11.59,2.81,15.85,7.93a2.51,2.51,0,1,0,3.86-3.22C89.48,45.77,82.48,42.31,75,42.31c-13.78,0-24.21,11.5-26.92,25.15H44.82a2.5,2.5,0,1,0,0,5h2.6c-.05.83-.08,1.7-.08,2.54a39.1,39.1,0,0,0,.73,7.54H44.82a2.52,2.52,0,0,0,0,5h4.63C53.46,99,63.1,107.69,75,107.69c7.48,0,14.48-3.46,19.72-9.74a2.52,2.52,0,0,0-3.87-3.22C86.59,99.85,81,102.66,75,102.66c-9.2,0-16.6-6.6-20.16-15.09H75a2.52,2.52,0,0,0,0-5H53.22A33.45,33.45,0,0,1,52.37,75c0-.84,0-1.68.09-2.51H75a2.52,2.52,0,0,0,0-5H53.22C55.75,56.51,64.14,47.34,75,47.34Z"/><path class="cls-2" d="M75,139.38c34.58,0,64.38-29.6,64.38-64.38,0-34.59-29.61-64.38-64.38-64.38S10.62,40.31,10.62,75,40.23,139.38,75,139.38ZM75,15.65c31.62,0,59.35,27.73,59.35,59.35S106.62,134.35,75,134.35,15.65,106.62,15.65,75,43.38,15.65,75,15.65Z"/><path class="cls-3" d="M75,124.29c26.21,0,49.29-22.91,49.29-49.29,0-22.39-16.81-42.85-38.69-48a2.51,2.51,0,1,0-1.16,4.89c19.85,4.72,34.82,23.27,34.82,43.15,0,23.58-20.68,44.26-44.26,44.26S30.74,98.58,30.74,75c0-19.88,15-38.43,34.82-43.15A2.51,2.51,0,1,0,64.4,27C42.54,32.15,25.71,52.59,25.71,75,25.71,101.21,48.62,124.29,75,124.29Z"/></g></svg>