<svg xmlns="http://www.w3.org/2000/svg" viewBox="0 0 150 150"><defs><style>.cls-1{fill:#476c86;}.cls-2{fill:#bdbdbd;}.cls-3{fill:#606060;}</style></defs><g id="Layer_3" data-name="Layer 3"><path class="cls-1" d="M31.25,118.75c-23.53-23.53-23.53-64,0-87.49s64-23.54,87.5,0,23.53,64,0,87.49S54.79,142.28,31.25,118.75Z"/><path class="cls-2" d="M108.08,41.93c17.62,17.62,17.62,48.53,0,66.15s-48.54,17.62-66.16,0-17.62-48.53,0-66.15S90.46,24.3,108.08,41.93Z"/><path class="cls-3" d="M43.88,106.12a2.52,2.52,0,0,0-3.48-.07l-.08.07a2.52,2.52,0,0,0,3.56,3.56l.07-.08A2.51,2.51,0,0,0,43.88,106.12Z"/><path class="cls-2" d="M120.52,29.48c-24.45-24.46-66.45-24.59-91,0s-24.59,66.46,0,91.05,66.51,24.53,91,0S145.11,54.06,120.52,29.48ZM33,117C10.67,94.61,10.67,55.39,33,33S94.61,10.68,117,33s22.36,61.58,0,83.94S55.39,139.33,33,117Z"/><path class="cls-3" d="M109.85,40.15c-18.53-18.53-51-18.66-69.7,0C24.31,56,21.73,82.33,33.53,101.48a2.52,2.52,0,0,0,4.29-2.64C27.11,81.47,29.64,57.76,43.7,43.7,60.37,27,89.63,27,106.3,43.7s16.67,45.93,0,62.6c-14.06,14.06-37.77,16.59-55.14,5.88a2.52,2.52,0,0,0-2.64,4.29c19.14,11.79,45.49,9.23,61.33-6.61C128.38,91.33,128.51,58.8,109.85,40.15Z"/><path class="cls-1" d="M96.3,75.31A28.85,28.85,0,0,1,69.67,104V73.1L91.81,65l-1.5-4.11L69.67,68.44V62L91.81,54l-1.5-4.12L69.67,57.36v-13H65.29V59l-9.65,3.51,1.5,4.12,8.15-3V70l-9.65,3.51,1.5,4.11,8.15-3V108.5h2.19a33.15,33.15,0,0,0,33.19-33.19Z"/></g></svg>