<svg xmlns="http://www.w3.org/2000/svg" viewBox="0 0 150 150"><defs><style>.cls-1,.cls-4{fill:#476c86;}.cls-2{fill:#bdbdbd;}.cls-3{fill:#606060;}.cls-4{stroke:#476c86;stroke-miterlimit:10;stroke-width:2px;}</style></defs><g id="Layer_3" data-name="Layer 3"><path class="cls-1" d="M118.75,118.75c-23.53,23.53-64,23.53-87.49,0s-23.54-64,0-87.5,64-23.53,87.49,0S142.28,95.21,118.75,118.75Z"/><path class="cls-2" d="M41.93,41.92c17.62-17.62,48.53-17.62,66.15,0s17.62,48.54,0,66.16-48.53,17.62-66.15,0S24.3,59.54,41.93,41.92Z"/><path class="cls-3" d="M106.12,106.12a2.52,2.52,0,0,0-.07,3.48l.07.08a2.52,2.52,0,0,0,3.56-3.56l-.08-.07A2.51,2.51,0,0,0,106.12,106.12Z"/><path class="cls-2" d="M29.48,29.48c-24.46,24.45-24.59,66.45,0,91s66.46,24.59,91.05,0,24.53-66.51,0-91S54.06,4.89,29.48,29.48ZM117,117C94.61,139.33,55.39,139.33,33,117S10.68,55.39,33,33,94.61,10.67,117,33,139.33,94.61,117,117Z"/><path class="cls-3" d="M40.15,40.15c-18.53,18.53-18.66,51.05,0,69.7,15.83,15.84,42.18,18.42,61.33,6.62a2.52,2.52,0,0,0-2.64-4.29c-17.37,10.71-41.08,8.18-55.14-5.88C27,89.63,27,60.37,43.7,43.7s45.93-16.67,62.6,0c14.06,14.06,16.59,37.77,5.88,55.14a2.52,2.52,0,0,0,4.29,2.64c11.79-19.14,9.23-45.49-6.61-61.33C91.33,21.62,58.8,21.49,40.15,40.15Z"/><path class="cls-4" d="M73.86,42.66A1.37,1.37,0,0,0,72.49,44v63.2a1.37,1.37,0,0,0,2.74,0V44A1.37,1.37,0,0,0,73.86,42.66Z"/><path class="cls-4" d="M73.86,48.16C64,48.16,56,54.32,56,61.9c0,5.23,3.76,9.93,9.81,12.27a1.27,1.27,0,0,0,.5.1,1.38,1.38,0,0,0,.5-2.66c-5-1.92-8.06-5.65-8.06-9.71,0-6.06,6.78-11,15.11-11S89,55.84,89,61.9a1.38,1.38,0,0,0,2.75,0C91.72,54.32,83.71,48.16,73.86,48.16Z"/><path class="cls-4" d="M81.91,77.1a1.37,1.37,0,1,0-1,2.56c5,1.93,8.06,5.65,8.06,9.72,0,6.06-6.78,11-15.11,11s-15.11-4.93-15.11-11a1.38,1.38,0,1,0-2.75,0c0,7.57,8,13.74,17.86,13.74S91.72,97,91.72,89.38C91.72,84.15,88,79.44,81.91,77.1Z"/><path class="cls-4" d="M81.92,77.11c-4-1.62-5.92-2.25-7.94-2.92-1.79-.59-3.64-1.2-7.17-2.57a1.37,1.37,0,1,0-1,2.55c3.6,1.41,5.49,2,7.31,2.63S77,78.07,80.9,79.65a1.32,1.32,0,0,0,.51.1,1.37,1.37,0,0,0,.51-2.64Z"/></g></svg>